<?xml version="1.0" standalone="no"?>
<!DOCTYPE svg PUBLIC "-//W3C//DTD SVG 20010904//EN"
 "http://www.w3.org/TR/2001/REC-SVG-20010904/DTD/svg10.dtd">
<svg version="1.0" xmlns="http://www.w3.org/2000/svg"
 width="1810.000000pt" height="1810.000000pt" viewBox="0 0 1810.000000 1810.000000"
 preserveAspectRatio="xMidYMid meet">
<metadata>
Created by potrace 1.11, written by Peter Selinger 2001-2013
</metadata>
<g transform="translate(0.000000,1810.000000) scale(0.100000,-0.100000)"
fill="#000000" stroke="none">
<path d="M8930 15429 c-25 -22 -79 -73 -120 -112 -95 -91 -333 -314 -371 -348
l-29 -26 0 -184 0 -185 -472 1 c-260 1 -479 -1 -485 -3 -31 -10 59 -156 156
-253 132 -132 300 -213 526 -254 58 -10 212 -19 342 -20 l133 0 0 -231 0 -231
-1215 0 -1215 -1 0 38 0 38 73 17 c39 9 86 19 102 21 59 9 272 63 336 85 138
48 281 139 389 248 80 81 116 139 126 202 l7 39 -294 0 c-162 1 -402 2 -534 3
l-239 2 -48 109 c-68 156 -102 208 -198 305 -145 147 -311 243 -565 326 -141
47 -353 94 -494 112 -50 6 -53 5 -43 -13 10 -20 89 -204 307 -719 69 -165 132
-313 140 -330 7 -16 52 -122 100 -235 47 -113 92 -218 100 -235 7 -16 38 -91
70 -165 31 -74 62 -148 70 -165 7 -16 97 -228 200 -470 103 -242 199 -465 215
-497 16 -31 45 -96 65 -145 20 -48 43 -98 50 -109 l14 -22 903 -2 c1157 -2
2814 -2 3925 0 641 2 875 5 881 14 5 6 26 52 47 101 21 50 60 136 87 192 26
56 48 105 48 108 0 3 12 32 26 63 14 31 35 79 46 106 10 27 27 68 37 90 11 23
31 70 46 106 15 36 36 85 47 110 22 51 34 80 47 113 5 12 18 42 29 67 11 25
102 239 202 475 100 237 208 491 240 565 32 74 108 254 170 400 61 146 120
283 129 305 10 22 29 65 41 95 13 30 37 89 55 131 l33 76 -52 -9 c-213 -35
-427 -84 -506 -115 -8 -4 -17 -7 -20 -8 -89 -24 -251 -102 -358 -171 -98 -64
-230 -191 -285 -276 -20 -31 -56 -100 -79 -155 -23 -54 -47 -105 -54 -113 -11
-14 -81 -16 -535 -18 -288 -2 -526 -5 -530 -8 -10 -6 8 -68 33 -119 34 -66
183 -204 292 -269 133 -79 247 -121 441 -161 44 -9 89 -19 100 -21 11 -2 36
-7 55 -11 19 -4 37 -8 40 -8 65 -13 68 -15 68 -54 l1 -39 -1215 1 c-890 0
-1214 3 -1215 11 -1 6 -2 109 -2 228 l-2 218 30 0 c132 2 340 10 362 15 16 2
53 7 83 11 182 21 388 117 518 241 88 85 181 226 169 257 -3 8 -157 11 -481
11 l-476 0 0 182 0 183 -72 67 c-171 161 -237 223 -298 280 -36 33 -94 88
-130 121 -36 34 -67 62 -70 62 -3 0 -25 -18 -50 -41z"/>
<path d="M5975 11256 c-36 -87 -60 -68 262 -206 158 -67 307 -131 331 -141 23
-10 44 -19 47 -19 2 -1 35 -15 72 -31 38 -17 82 -36 98 -44 17 -7 91 -39 165
-70 74 -32 158 -68 185 -80 28 -13 79 -35 115 -50 36 -14 79 -32 95 -40 17 -7
71 -30 120 -50 50 -21 95 -43 102 -49 9 -9 196 -532 226 -631 3 -11 21 -63 39
-115 l34 -95 54 3 c30 2 56 4 57 6 2 2 5 23 7 47 4 45 12 117 21 199 3 25 8
65 10 90 2 25 9 88 15 140 6 52 12 113 15 135 14 137 36 335 40 365 2 19 7 62
10 95 3 33 8 76 10 95 3 19 7 58 10 87 6 59 20 52 -150 78 -55 9 -143 23 -195
31 -52 9 -108 18 -125 21 -37 5 -272 44 -294 48 -9 1 -41 6 -71 10 -30 4 -64
9 -75 11 -11 2 -78 13 -150 25 -71 11 -140 22 -152 24 -12 2 -57 8 -100 15
-43 6 -100 15 -128 20 -63 12 -123 21 -155 25 -14 1 -70 10 -125 19 -55 8
-158 25 -230 36 -71 12 -140 23 -153 25 -19 3 -26 -3 -37 -29z"/>
<path d="M11855 11270 c-55 -10 -122 -21 -150 -24 -27 -4 -61 -8 -75 -11 -38
-7 -230 -37 -315 -50 -22 -3 -78 -12 -125 -20 -47 -8 -105 -17 -130 -20 -25
-3 -56 -8 -70 -10 -14 -3 -41 -7 -60 -10 -19 -3 -60 -10 -90 -15 -30 -5 -75
-12 -100 -15 -25 -3 -52 -8 -60 -10 -8 -2 -31 -6 -50 -9 -91 -13 -367 -57
-380 -61 -8 -2 -37 -6 -65 -10 -27 -3 -57 -8 -65 -10 -8 -2 -33 -6 -55 -10
-99 -14 -172 -26 -198 -31 l-28 -6 6 -66 c12 -128 15 -157 25 -237 5 -44 12
-107 15 -140 3 -33 8 -73 10 -90 2 -16 7 -61 11 -100 3 -38 8 -78 10 -89 2
-10 6 -53 10 -95 3 -42 7 -78 9 -81 2 -3 6 -43 10 -89 4 -47 8 -92 10 -102 2
-10 7 -49 10 -86 7 -70 15 -126 18 -129 1 -1 27 -4 56 -6 l55 -3 17 55 c10 30
55 161 99 290 45 129 100 289 122 355 39 114 60 155 80 155 5 0 33 11 61 24
29 13 144 63 257 111 113 48 219 93 235 101 17 7 257 110 534 229 278 118 507
218 509 220 6 6 -39 115 -47 114 -3 -1 -51 -9 -106 -19z"/>
<path d="M5447 8412 c5 -1520 11 -3256 12 -3262 1 -7 7029 -6 7036 2 3 3 9
795 11 1759 3 965 6 1928 7 2141 1 212 -2 384 -6 381 -8 -5 -909 -705 -947
-736 -8 -7 -34 -27 -58 -45 l-42 -34 0 -907 0 -907 -357 -257 c-197 -141 -362
-260 -368 -264 -5 -5 -90 -66 -188 -137 l-179 -129 -41 22 c-23 12 -49 26 -57
31 -8 6 -87 50 -175 98 -257 142 -271 150 -470 262 -104 58 -243 135 -307 171
l-118 64 0 500 1 500 77 81 c75 78 301 317 377 399 21 22 99 105 174 184 75
79 149 158 165 175 16 17 46 50 68 72 l40 41 -1121 0 -1122 0 18 -20 c24 -28
17 -20 363 -386 164 -174 183 -193 299 -317 46 -49 115 -121 152 -159 l67 -71
-2 -499 -1 -499 -95 -54 c-52 -30 -133 -74 -180 -99 -47 -25 -89 -49 -95 -54
-5 -4 -185 -105 -400 -224 l-390 -217 -30 18 c-16 10 -32 20 -35 23 -5 6 -96
73 -168 123 -18 13 -52 37 -75 54 -75 55 -411 297 -452 326 -72 50 -289 207
-314 226 l-24 20 1 905 2 905 -208 161 c-114 89 -220 173 -237 185 -16 13
-138 108 -270 210 -132 103 -247 192 -255 199 -8 7 -31 25 -51 40 l-36 27 4
-1028z"/>
<path d="M6418 4545 c-2 -2 -31 -6 -64 -8 -102 -6 -110 -34 -16 -61 84 -24 83
-23 68 -82 -22 -82 -88 -226 -302 -654 -111 -223 -214 -432 -229 -465 -88
-194 -124 -293 -131 -352 l-5 -41 58 -17 c49 -15 112 -17 418 -19 198 0 372 2
387 6 19 6 25 13 21 27 -3 14 -20 22 -64 30 -70 14 -90 36 -79 84 24 100 99
264 383 833 222 447 297 611 297 651 0 36 -18 45 -111 58 -85 12 -620 20 -631
10z"/>
<path d="M11219 4546 c-2 -2 -53 -6 -113 -10 -180 -11 -389 -65 -529 -139
-161 -83 -281 -265 -281 -427 0 -181 146 -269 564 -344 133 -23 341 -70 392
-87 119 -39 159 -77 160 -148 2 -128 -180 -238 -437 -266 -33 -4 -73 -9 -90
-11 -38 -5 -602 -4 -673 1 -111 8 -165 26 -180 61 -7 13 -17 24 -24 25 -7 0
-22 2 -34 4 -12 3 -28 -1 -37 -8 -38 -29 -123 -240 -110 -274 7 -18 82 -52
138 -62 114 -21 1136 -18 1277 4 12 2 52 6 87 10 326 32 621 191 717 389 96
197 49 370 -127 465 -80 42 -284 100 -544 153 -55 11 -107 21 -115 23 -61 13
-183 59 -222 84 -43 27 -59 52 -63 96 -4 40 90 112 189 144 102 34 110 34 481
36 198 1 369 5 380 8 50 13 74 28 99 58 55 65 106 192 83 206 -12 7 -980 17
-988 9z"/>
<path d="M8427 4534 c-1 -1 -40 -4 -87 -8 -69 -5 -183 -25 -290 -50 -192 -46
-321 -129 -449 -291 -61 -76 -111 -148 -143 -205 -14 -25 -45 -79 -68 -120
-70 -122 -166 -328 -201 -430 -42 -124 -46 -250 -12 -320 27 -54 64 -95 120
-133 44 -30 155 -72 213 -81 19 -2 58 -8 85 -12 28 -3 59 -8 70 -10 11 -3 36
-6 55 -9 19 -3 72 -11 118 -18 152 -25 951 -27 1102 -3 14 2 50 7 80 11 30 4
62 8 70 10 233 43 323 105 413 287 26 52 47 98 47 101 0 6 24 60 82 187 65
141 77 167 102 228 28 65 56 164 56 194 0 31 -104 61 -262 75 -76 7 -440 8
-687 1 l-144 -4 -29 -34 c-38 -47 -64 -128 -51 -165 11 -33 -2 -31 278 -39 83
-2 153 -5 157 -5 16 -2 -38 -128 -168 -397 -82 -168 -115 -180 -494 -178 -273
1 -407 33 -461 112 -53 78 -18 246 102 489 75 150 198 340 266 410 82 84 193
130 363 149 66 7 403 7 722 0 237 -5 336 13 410 78 31 26 68 103 75 153 l5 33
-722 -2 c-397 -2 -722 -4 -723 -4z"/>
</g>
</svg>
